<?xml version="1.0" encoding="UTF-8" standalone="no"?>
<!-- Created with Inkscape (http://www.inkscape.org/) -->

<svg
   xmlns:dc="http://purl.org/dc/elements/1.1/"
   xmlns:cc="http://creativecommons.org/ns#"
   xmlns:rdf="http://www.w3.org/1999/02/22-rdf-syntax-ns#"
   xmlns:svg="http://www.w3.org/2000/svg"
   xmlns="http://www.w3.org/2000/svg"
   xmlns:sodipodi="http://sodipodi.sourceforge.net/DTD/sodipodi-0.dtd"
   xmlns:inkscape="http://www.inkscape.org/namespaces/inkscape"
   version="1.1"
   id="svg8528"
   xml:space="preserve"
   width="666.66669"
   height="666.66669"
   viewBox="0 0 666.66669 666.66669"
   sodipodi:docname="bird-low-poly-publicdomainvectors.org.svg"
   inkscape:version="0.92.4 (5da689c313, 2019-01-14)"><metadata
     id="metadata8534"><rdf:RDF><cc:Work
         rdf:about=""><dc:format>image/svg+xml</dc:format><dc:type
           rdf:resource="http://purl.org/dc/dcmitype/StillImage" /><dc:title></dc:title></cc:Work></rdf:RDF></metadata><defs
     id="defs8532"><clipPath
       clipPathUnits="userSpaceOnUse"
       id="clipPath8544"><path
         d="M 0,500 H 500 V 0 H 0 Z"
         id="path8542"
         inkscape:connector-curvature="0" /></clipPath></defs><sodipodi:namedview
     pagecolor="#ffffff"
     bordercolor="#666666"
     borderopacity="1"
     objecttolerance="10"
     gridtolerance="10"
     guidetolerance="10"
     inkscape:pageopacity="0"
     inkscape:pageshadow="2"
     inkscape:window-width="797"
     inkscape:window-height="480"
     id="namedview8530"
     showgrid="false"
     inkscape:zoom="0.35399999"
     inkscape:cx="333.33334"
     inkscape:cy="333.33334"
     inkscape:window-x="0"
     inkscape:window-y="0"
     inkscape:window-maximized="0"
     inkscape:current-layer="g8536" /><g
     id="g8536"
     inkscape:groupmode="layer"
     inkscape:label="bird-low-poly-publicdomainvectors.org"
     transform="matrix(1.3333333,0,0,-1.3333333,0,666.66667)"><g
       id="g8538"><g
         id="g8540"
         clip-path="url(#clipPath8544)"><path
           d="m 365.277,58.467 c 0.55,0.816 0.953,4.066 1.19,7.393 l -7.268,-0.494 c 2.664,-4.796 4.78,-8.822 6.078,-6.899"
           style="fill:#5885bd;fill-opacity:1;fill-rule:nonzero;stroke:none"
           id="path8546"
           inkscape:connector-curvature="0" /><path
           d="m 385.84,198.216 c -0.215,0.431 -0.43,0.862 -0.644,1.296 l -2.26,-1.557 z"
           style="fill:#99a8cc;fill-opacity:1;fill-rule:nonzero;stroke:none"
           id="path8548"
           inkscape:connector-curvature="0" /><path
           d="m 393.733,139.297 29.462,-11.343 c -2.466,6.39 -7.353,15.556 -12.802,24.68 -1.77,2.961 -3.589,6.094 -5.444,9.368 l -21.158,-12.778 c 3.256,-3.491 6.611,-6.829 9.942,-9.927"
           style="fill:#7498c8;fill-opacity:1;fill-rule:nonzero;stroke:none"
           id="path8550"
           inkscape:connector-curvature="0" /><path
           d="m 382.936,197.955 -4.346,-42.917 c 1.69,-1.973 3.431,-3.916 5.201,-5.814 l 21.158,12.778 c -6.123,10.815 -12.64,23.196 -19.109,36.214 z"
           style="fill:#8aafd4;fill-opacity:1;fill-rule:nonzero;stroke:none"
           id="path8552"
           inkscape:connector-curvature="0" /><path
           d="m 385.196,199.512 c -0.561,1.133 -1.121,2.269 -1.68,3.411 l -0.58,-4.968 z"
           style="fill:#a9b9c4;fill-opacity:1;fill-rule:nonzero;stroke:none"
           id="path8554"
           inkscape:connector-curvature="0" /><path
           d="m 377.535,79.504 c 0.047,1.548 -0.135,4.653 -1.306,10.709 l -0.362,-14.4 c 0.92,-1.039 1.531,-0.86 1.668,3.691"
           style="fill:#5f92c3;fill-opacity:1;fill-rule:nonzero;stroke:none"
           id="path8556"
           inkscape:connector-curvature="0" /><path
           d="m 423.411,119.397 c 2.196,0 1.79,3.36 -0.216,8.557 l -29.462,11.343 c 12.531,-11.657 24.687,-19.9 29.678,-19.9"
           style="fill:#5f92c3;fill-opacity:1;fill-rule:nonzero;stroke:none"
           id="path8558"
           inkscape:connector-curvature="0" /><path
           d="m 359.199,65.366 7.268,0.494 c 0.04,0.574 0.076,1.148 0.105,1.714 l -9.269,1.118 c 0.659,-1.108 1.293,-2.237 1.896,-3.326"
           style="fill:#6c9bc9;fill-opacity:1;fill-rule:nonzero;stroke:none"
           id="path8560"
           inkscape:connector-curvature="0" /><path
           d="m 382.936,197.955 0.58,4.968 c -9.815,20.014 -19.389,41.235 -27.17,60.391 l -12.586,-6.263 z"
           style="fill:#b5cccd;fill-opacity:1;fill-rule:nonzero;stroke:none"
           id="path8562"
           inkscape:connector-curvature="0" /><path
           d="m 356.849,69.44 -0.005,0.015 c 0.154,-0.252 0.307,-0.507 0.459,-0.763 l 9.269,-1.118 c 0.089,1.642 0.135,3.2 0.135,4.382 0,3.113 0.132,5.178 0.582,6.444 l -31.07,44.386 c 8.717,-26.867 16.023,-45.809 20.63,-53.346"
           style="fill:#72a6ce;fill-opacity:1;fill-rule:nonzero;stroke:none"
           id="path8564"
           inkscape:connector-curvature="0" /><path
           d="m 331.615,137.293 c 1.573,-5.058 3.109,-9.897 4.604,-14.507 L 367.289,78.4 c 0.705,1.982 2.193,2.004 5.2,0.994 1.314,-0.44 2.49,-2.578 3.378,-3.581 l 0.362,14.4 c -0.719,3.725 -1.813,8.565 -3.459,14.85 -2.641,10.06 -5.588,26.74 -7.082,39.615 l -35.667,-2.455 c 0.566,-1.688 1.1,-3.336 1.594,-4.93"
           style="fill:#75add1;fill-opacity:1;fill-rule:nonzero;stroke:none"
           id="path8566"
           inkscape:connector-curvature="0" /><path
           d="m 356.346,263.314 c -1.783,4.39 -3.473,8.672 -5.049,12.805 l -7.537,-19.068 z"
           style="fill:#bdc3b5;fill-opacity:1;fill-rule:nonzero;stroke:none"
           id="path8568"
           inkscape:connector-curvature="0" /><path
           d="m 343.76,257.051 7.537,19.068 c -0.457,1.202 -0.906,2.392 -1.346,3.567 -11.264,30.197 -19.018,48.806 -26.699,63.237 l -18.227,0.447 z"
           style="fill:#c8c7b1;fill-opacity:1;fill-rule:nonzero;stroke:none"
           id="path8570"
           inkscape:connector-curvature="0" /><path
           d="m 324.082,158.432 c 2.184,-5.56 4.214,-11.074 5.939,-16.209 l 35.667,2.455 c -0.221,1.904 -0.41,3.725 -0.561,5.429 l -0.706,7.965 -37.925,36.119 z"
           style="fill:#93c6de;fill-opacity:1;fill-rule:nonzero;stroke:none"
           id="path8572"
           inkscape:connector-curvature="0" /><path
           d="m 326.496,194.191 37.925,-36.119 -1.425,16.078 12.704,-15.649 c 0.944,-1.162 1.908,-2.317 2.89,-3.463 l 4.346,42.917 z"
           style="fill:#97c4de;fill-opacity:1;fill-rule:nonzero;stroke:none"
           id="path8574"
           inkscape:connector-curvature="0" /><path
           d="m 326.496,194.191 56.44,3.764 -39.176,59.096 z"
           style="fill:#afd1e2;fill-opacity:1;fill-rule:nonzero;stroke:none"
           id="path8576"
           inkscape:connector-curvature="0" /><path
           d="m 323.252,342.923 c -3.196,6.004 -6.38,11.285 -9.799,16.375 l -8.428,-15.928 z"
           style="fill:#ceb39d;fill-opacity:1;fill-rule:nonzero;stroke:none"
           id="path8578"
           inkscape:connector-curvature="0" /><path
           d="M 240.618,312.383 265.85,243.105 305.025,343.37 Z"
           style="fill:#e0e2c2;fill-opacity:1;fill-rule:nonzero;stroke:none"
           id="path8580"
           inkscape:connector-curvature="0" /><path
           d="m 265.85,243.105 60.646,-48.914 17.264,62.86 z"
           style="fill:#c5e0e0;fill-opacity:1;fill-rule:nonzero;stroke:none"
           id="path8582"
           inkscape:connector-curvature="0" /><path
           d="M 305.025,343.37 265.85,243.105 343.76,257.051 Z"
           style="fill:#d3dfc6;fill-opacity:1;fill-rule:nonzero;stroke:none"
           id="path8584"
           inkscape:connector-curvature="0" /><path
           d="m 255.973,406.678 c -3.133,1.885 -6.252,3.676 -9.317,5.343 -5.017,2.727 -10.298,6.739 -15.497,11.708 l 1.27,-42.29 z"
           style="fill:#df9689;fill-opacity:1;fill-rule:nonzero;stroke:none"
           id="path8586"
           inkscape:connector-curvature="0" /><path
           d="m 315.828,178.049 c 2.795,-6.223 5.634,-12.953 8.254,-19.617 l 2.414,35.759 z"
           style="fill:#9ccce2;fill-opacity:1;fill-rule:nonzero;stroke:none"
           id="path8588"
           inkscape:connector-curvature="0" /><path
           d="m 305.775,198.411 c 2.897,-5.112 6.438,-12.312 10.053,-20.362 l 10.668,16.142 z"
           style="fill:#b6deec;fill-opacity:1;fill-rule:nonzero;stroke:none"
           id="path8590"
           inkscape:connector-curvature="0" /><path
           d="m 252.508,173.826 c -0.644,-1.038 -1.225,-1.94 -1.788,-2.723 l 12.527,-25.588 c 1.155,2.39 1.558,5.593 1.536,9.849 -0.02,5.323 2.84,11.77 7.358,16.541 7.136,7.548 7.657,7.643 14.824,2.676 7.548,-5.227 8.498,-4.606 7.578,4.932 -0.28,2.94 1.04,5.351 2.941,5.351 2.33,0 2.92,3.477 1.81,10.699 -0.232,1.515 -0.392,2.958 -0.48,4.266 l -48.839,9.946 c 7.541,-16.949 7.998,-27.129 2.533,-35.949"
           style="fill:#b6deec;fill-opacity:1;fill-rule:nonzero;stroke:none"
           id="path8592"
           inkscape:connector-curvature="0" /><path
           d="m 289.031,383.688 c -9.89,7.902 -21.569,16.077 -33.058,22.99 l -23.544,-25.239 z"
           style="fill:#dc9f90;fill-opacity:1;fill-rule:nonzero;stroke:none"
           id="path8594"
           inkscape:connector-curvature="0" /><path
           d="m 305.025,343.37 8.428,15.928 c -0.447,0.667 -0.898,1.33 -1.354,1.991 -4.094,5.934 -12.574,14.012 -23.068,22.399 l -56.602,-2.249 z"
           style="fill:#dfba9f;fill-opacity:1;fill-rule:nonzero;stroke:none"
           id="path8596"
           inkscape:connector-curvature="0" /><path
           d="m 265.85,243.105 -23.155,-18.75 c 2.912,-5.373 5.333,-10.203 7.28,-14.58 l 48.839,-9.946 c -0.255,3.779 0.079,6.437 0.941,6.437 1.087,0 3.259,-2.977 6.02,-7.855 l 20.721,-4.22 z"
           style="fill:#cde9ef;fill-opacity:1;fill-rule:nonzero;stroke:none"
           id="path8598"
           inkscape:connector-curvature="0" /><path
           d="m 232.429,381.439 8.189,-69.056 64.407,30.987 z"
           style="fill:#e8cead;fill-opacity:1;fill-rule:nonzero;stroke:none"
           id="path8600"
           inkscape:connector-curvature="0" /><path
           d="m 240.618,312.383 -22.844,-34.644 c 4.805,-6.18 7.484,-11.446 8.316,-16.229 0.268,-1.532 0.941,-3.743 1.919,-6.409 l 37.841,-11.996 z"
           style="fill:#ebf0d3;fill-opacity:1;fill-rule:nonzero;stroke:none"
           id="path8602"
           inkscape:connector-curvature="0" /><path
           d="m 230.556,167.354 c -13.56,1.294 -18.101,0.544 -22.832,-3.787 -5.973,-5.482 -7.688,-9.578 -3.732,-8.918 1.2,0.2 3.877,0.2 5.963,0 2.61,-0.251 27.939,-1.336 2,-3.266 -1.921,-0.145 -3.651,-3.241 -6.683,-3.291 -5.897,-0.396 -17.495,-8.434 -22.519,-14.376 l 13.953,-2.267 c 7.466,0.481 16.356,2.191 20.496,3.999 4.476,1.955 15.71,3.551 24.958,3.551 12.666,0 18.61,1.388 21.087,6.516 l -12.527,25.588 c -3.567,-4.955 -6.433,-5.067 -20.164,-3.749"
           style="fill:#bee1ed;fill-opacity:1;fill-rule:nonzero;stroke:none"
           id="path8604"
           inkscape:connector-curvature="0" /><path
           d="m 180.774,130.82 c 1.741,-4.384 14.14,0.536 14.14,0.536 0.586,0.022 1.185,0.055 1.792,0.093 l -13.953,2.267 c -0.886,-1.048 -1.569,-2.03 -1.979,-2.896"
           style="fill:#a6c6dd;fill-opacity:1;fill-rule:nonzero;stroke:none"
           id="path8606"
           inkscape:connector-curvature="0" /><path
           d="m 204.098,325.441 36.52,-13.058 -8.189,69.056 z"
           style="fill:#f3d7b3;fill-opacity:1;fill-rule:nonzero;stroke:none"
           id="path8608"
           inkscape:connector-curvature="0" /><path
           d="m 228.009,255.101 c 2.704,-7.364 7.742,-18.193 13.046,-27.752 0.564,-1.017 1.11,-2.014 1.64,-2.994 l 23.155,18.75 z"
           style="fill:#e4f3e5;fill-opacity:1;fill-rule:nonzero;stroke:none"
           id="path8610"
           inkscape:connector-curvature="0" /><path
           d="m 217.749,438.996 c -9.998,13.014 -21.791,22.759 -32.567,27.337 l 11.612,-95.297 z"
           style="fill:#ef9e87;fill-opacity:1;fill-rule:nonzero;stroke:none"
           id="path8612"
           inkscape:connector-curvature="0" /><path
           d="m 232.429,381.439 -1.27,42.29 c -4.404,4.209 -8.748,9.105 -12.822,14.496 -0.195,0.258 -0.392,0.515 -0.588,0.771 l -20.955,-67.96 z"
           style="fill:#f4ae99;fill-opacity:1;fill-rule:nonzero;stroke:none"
           id="path8614"
           inkscape:connector-curvature="0" /><path
           d="m 196.794,371.036 7.304,-45.595 28.331,55.998 z"
           style="fill:#f7cea8;fill-opacity:1;fill-rule:nonzero;stroke:none"
           id="path8616"
           inkscape:connector-curvature="0" /><path
           d="m 204.098,325.441 1.669,-34.332 c 1.005,-1.097 2.037,-2.19 3.097,-3.28 3.534,-3.634 6.49,-6.977 8.91,-10.09 l 22.844,34.644 z"
           style="fill:#f2ecc8;fill-opacity:1;fill-rule:nonzero;stroke:none"
           id="path8618"
           inkscape:connector-curvature="0" /><path
           d="m 185.182,466.333 c -4.434,1.883 -8.697,2.893 -12.591,2.893 -0.286,0 -0.6,-0.017 -0.932,-0.045 l -29.798,-43.363 c 8.39,-6.821 17.333,-17.833 21.968,-28.252 1.636,-3.685 3.692,-10.249 5.621,-17.654 l 27.344,-8.876 z"
           style="fill:#fbb081;fill-opacity:1;fill-rule:nonzero;stroke:none"
           id="path8620"
           inkscape:connector-curvature="0" /><path
           d="m 154.09,463.113 c -6.242,-3.366 -13.679,-6.117 -16.52,-6.117 -4.121,0 -12.959,-6.44 -19.45,-13.26 l 0.814,-13.159 c 3.376,0.881 7.004,1.961 9.382,1.961 3.596,0 8.469,-2.594 13.545,-6.72 l 29.798,43.363 c -4.208,-0.363 -11.787,-2.952 -17.569,-6.068"
           style="fill:#f59f6d;fill-opacity:1;fill-rule:nonzero;stroke:none"
           id="path8622"
           inkscape:connector-curvature="0" /><path
           d="m 181.987,329.412 c 2.747,-7.239 6.005,-13.872 9.894,-20.136 l 12.217,16.165 z"
           style="fill:#fff0ab;fill-opacity:1;fill-rule:nonzero;stroke:none"
           id="path8624"
           inkscape:connector-curvature="0" /><path
           d="m 191.881,309.276 c 3.941,-6.35 8.53,-12.323 13.886,-18.167 l -1.669,34.332 z"
           style="fill:#f9f6c6;fill-opacity:1;fill-rule:nonzero;stroke:none"
           id="path8626"
           inkscape:connector-curvature="0" /><path
           d="m 196.794,371.036 -23.414,-8.525 c 0.143,-0.753 0.281,-1.5 0.412,-2.237 2.068,-11.582 4.722,-21.707 8.195,-30.862 l 22.111,-3.971 z"
           style="fill:#fdd99e;fill-opacity:1;fill-rule:nonzero;stroke:none"
           id="path8628"
           inkscape:connector-curvature="0" /><path
           d="m 169.45,379.912 c 1.462,-5.612 2.851,-11.707 3.93,-17.401 l 23.414,8.525 z"
           style="fill:#ffcd89;fill-opacity:1;fill-rule:nonzero;stroke:none"
           id="path8630"
           inkscape:connector-curvature="0" /><path
           d="m 110.351,431.173 c 0,-2.601 4.065,-1.777 8.583,-0.596 l -0.814,13.159 c -4.431,-4.653 -7.769,-9.483 -7.769,-12.563"
           style="fill:#fba66a;fill-opacity:1;fill-rule:nonzero;stroke:none"
           id="path8632"
           inkscape:connector-curvature="0" /></g></g></g></svg>